<?xml version="1.0" standalone="no"?>
<!DOCTYPE svg PUBLIC "-//W3C//DTD SVG 20010904//EN"
 "http://www.w3.org/TR/2001/REC-SVG-20010904/DTD/svg10.dtd">
<svg version="1.0" xmlns="http://www.w3.org/2000/svg"
 width="400.000000pt" height="400.000000pt" viewBox="0 0 400.000000 400.000000"
 preserveAspectRatio="xMidYMid meet">
<metadata>
Created by potrace 1.14, written by Peter Selinger 2001-2017
</metadata>
<g transform="translate(0.000000,400.000000) scale(0.100000,-0.100000)"
fill="#000000" stroke="none">
<path d="M699 2198 c2 -836 0 -1171 -10 -1311 -10 -156 -10 -190 1 -197 7 -4
49 -6 94 -3 121 8 2316 7 2423 0 61 -5 94 -3 98 4 6 9 7 734 2 2114 l-2 510
-70 2 c-51 2 -74 -2 -87 -13 -15 -15 -128 -15 -1155 -9 -643 4 -1142 11 -1147
16 -6 5 -42 9 -80 9 l-71 0 4 -1122z m657 1020 c2 -29 8 -54 14 -56 13 -5 13
-89 0 -97 -6 -4 -10 -80 -10 -196 0 -119 4 -189 10 -189 6 0 10 -12 10 -26 0
-14 -4 -23 -10 -19 -7 4 -10 -120 -10 -364 0 -241 4 -371 10 -371 6 0 10 -9
10 -20 0 -11 -4 -20 -10 -20 -7 0 -10 -157 -10 -450 0 -293 3 -450 10 -450 13
0 13 -97 1 -102 -6 -1 -11 -27 -12 -56 -2 -28 -6 -52 -9 -52 -15 0 -20 82 -20
318 0 191 -3 243 -12 239 -7 -2 -21 2 -30 11 -12 10 -18 11 -18 4 0 -20 -91
-15 -106 6 -16 20 -18 58 -5 67 13 7 34 -32 25 -47 -5 -8 12 -10 66 -5 40 3
74 8 76 10 2 2 4 421 5 933 0 511 3 944 6 962 7 45 16 32 19 -30z m889 -55
c13 -31 16 -91 5 -98 -12 -7 -14 -385 -2 -385 4 0 8 -9 9 -20 1 -11 -2 -20 -8
-20 -15 0 -12 -733 3 -748 9 -9 9 -15 0 -24 -9 -9 -12 -81 -12 -264 l0 -253
43 -5 c23 -3 59 -7 79 -8 67 -5 29 -27 -50 -30 l-72 -2 0 -173 c0 -109 4 -173
10 -173 6 0 10 -22 10 -50 0 -27 -4 -50 -10 -50 -5 0 -10 -9 -10 -20 0 -19 8
-20 193 -23 l192 -2 -197 -3 -198 -2 0 -30 c0 -16 -5 -30 -11 -30 -5 0 -7 5
-4 10 3 6 1 10 -5 10 -6 0 -9 4 -6 9 3 5 6 567 6 1249 0 681 4 1243 8 1247 4
4 10 -16 13 -44 4 -28 10 -59 14 -68z m-455 58 c0 -28 5 -53 10 -56 6 -3 10
-28 10 -56 0 -27 -4 -49 -10 -49 -6 0 -10 -68 -10 -184 0 -113 4 -187 10 -191
6 -3 10 -15 10 -26 0 -10 -4 -19 -10 -19 -6 0 -10 -128 -10 -364 0 -233 4
-367 10 -371 6 -3 10 -15 10 -26 0 -10 -4 -19 -10 -19 -7 0 -10 -153 -10 -438
0 -356 3 -441 14 -457 16 -24 15 -87 -2 -108 -7 -8 -12 -33 -11 -56 3 -40 -5
-61 -17 -48 -4 3 -7 129 -8 279 -1 235 -3 273 -16 273 -8 0 -19 6 -23 13 -4 6
-13 12 -20 12 -7 0 -6 -4 3 -10 10 -7 -10 -9 -63 -8 -42 1 -72 5 -65 9 8 5 9
11 1 21 -16 20 -12 49 6 46 10 -2 16 -13 15 -28 l-1 -26 71 8 c39 4 77 7 84 7
10 1 12 180 12 904 -2 1087 -2 1017 10 1017 6 0 10 -22 10 -49z m880 0 c0 -28
5 -53 10 -56 6 -3 10 -26 10 -50 0 -24 -4 -47 -10 -50 -6 -4 -10 -80 -10 -196
0 -119 4 -189 10 -189 6 0 10 -9 10 -19 0 -11 -4 -23 -10 -26 -6 -4 -10 -138
-10 -371 0 -236 4 -364 10 -364 6 0 10 -9 10 -20 0 -11 -4 -20 -10 -20 -15 0
-14 -497 1 -506 6 -3 40 -9 76 -12 53 -4 62 -7 51 -18 -7 -7 -41 -14 -76 -16
l-63 -3 5 -170 c3 -93 8 -194 11 -222 5 -36 3 -53 -4 -53 -6 0 -11 -9 -11 -20
0 -19 7 -20 248 -22 l247 -3 -247 -2 -248 -3 0 -30 c0 -17 -4 -30 -10 -30 -5
0 -10 3 -10 8 -1 15 -1 2488 -1 2500 1 6 6 12 11 12 6 0 10 -22 10 -49z
m-1880 29 c0 -5 -14 -10 -31 -10 -17 0 -28 4 -24 10 3 6 17 10 31 10 13 0 24
-4 24 -10z m2470 0 c0 -5 -11 -10 -25 -10 -14 0 -25 5 -25 10 0 6 11 10 25 10
14 0 25 -4 25 -10z m-500 -342 l0 -52 -22 21 c-19 19 -20 25 -8 52 19 46 30
38 30 -21z m46 37 c4 -8 -1 -26 -9 -38 -14 -21 -13 -24 1 -35 15 -9 14 -11 -5
-11 -27 -1 -29 15 -8 55 15 29 11 49 -5 24 -8 -13 -10 -12 -10 3 0 21 28 23
36 2z m38 -27 c-9 -62 -21 -67 -20 -9 1 34 5 51 14 51 9 0 10 -12 6 -42z m48
10 c5 -46 -1 -68 -18 -68 -8 0 -14 5 -14 10 0 6 4 10 9 10 5 0 9 16 9 36 0 25
-3 33 -9 23 -7 -11 -9 -11 -9 4 0 32 28 18 32 -15z m41 25 c-16 -6 -17 -33 -2
-33 6 0 9 -12 7 -27 -2 -16 -9 -28 -15 -28 -7 0 -12 5 -10 10 1 6 5 9 10 8 14
-5 7 25 -7 30 -12 5 -14 21 -7 45 1 1 9 2 19 1 10 0 12 -3 5 -6z m53 -40 c3
-25 1 -44 -5 -48 -6 -3 -11 0 -11 9 0 8 -5 16 -12 18 -9 3 -9 12 1 36 16 39
19 37 27 -15z m52 27 c5 -13 3 -13 -11 -1 -15 12 -17 10 -17 -23 0 -20 4 -36
10 -36 5 0 7 7 4 15 -4 8 -1 15 6 15 18 0 7 -44 -12 -48 -15 -3 -18 4 -18 48
0 43 3 51 17 48 9 -2 19 -10 21 -18z m32 -30 c0 -27 -4 -50 -10 -50 -5 0 -10
23 -10 50 0 28 5 50 10 50 6 0 10 -22 10 -50z m-749 -513 c1 -20 2 -20 6 -2
11 45 23 37 22 -15 0 -34 -3 -48 -8 -37 -4 10 -11 18 -16 18 -5 0 -12 -8 -16
-18 -5 -11 -8 3 -8 35 -1 33 3 51 9 47 6 -3 11 -16 11 -28z m87 -20 c2 -28 -1
-47 -7 -47 -6 0 -12 8 -12 18 -1 16 -2 16 -6 0 -7 -28 -19 -21 -21 13 -4 45 7
71 26 67 13 -2 18 -16 20 -51z m33 44 c6 9 9 -3 9 -34 0 -27 4 -46 9 -42 5 3
12 1 16 -5 3 -5 -3 -10 -14 -10 -12 0 -21 6 -21 13 0 8 -3 8 -9 -2 -6 -9 -9 5
-9 40 0 30 2 48 5 40 5 -11 7 -11 14 0z m84 -2 c4 -6 4 -13 0 -17 -3 -3 -10 0
-15 8 -7 11 -9 1 -8 -30 0 -25 3 -35 5 -22 5 26 23 20 23 -9 0 -12 -7 -19 -19
-19 -26 0 -30 16 -22 93 1 11 29 8 36 -4z m54 -39 c-1 -27 -6 -47 -10 -44 -5
3 -9 13 -10 22 -1 11 -4 8 -9 -8 -6 -20 -8 -14 -9 28 -1 46 1 52 19 52 17 0
19 -6 19 -50z m199 31 c2 -6 1 -19 -3 -29 -5 -14 -7 -14 -15 -2 -7 11 -10 6
-10 -17 0 -18 -5 -33 -11 -33 -17 0 -6 54 16 73 15 13 16 16 4 11 -10 -3 -20
-1 -24 5 -4 7 2 10 16 8 13 -2 25 -9 27 -16z m41 0 c1 18 31 21 43 5 11 -16
-3 -38 -17 -26 -8 7 -12 5 -12 -5 0 -8 6 -15 14 -15 7 0 13 -8 13 -19 0 -13
-7 -18 -25 -18 -14 0 -25 3 -25 8 0 5 5 9 12 9 6 0 8 3 4 7 -4 5 -14 0 -21
-11 -13 -18 -14 -17 -12 3 1 11 7 21 14 21 7 0 13 5 13 10 0 6 -6 10 -14 10
-10 0 -12 7 -8 22 5 21 6 21 13 2 6 -15 8 -15 8 -3z m84 3 c10 14 12 13 13 -7
1 -16 -4 -23 -17 -23 -14 0 -19 7 -18 26 1 18 3 20 6 7 4 -17 6 -17 16 -3z
m43 -9 c1 -14 -3 -25 -8 -25 -6 0 -7 -11 -4 -25 6 -23 4 -25 -29 -25 -30 0
-35 3 -34 23 1 16 2 18 6 5 4 -17 24 -26 22 -10 -3 18 2 35 8 29 11 -12 31 13
26 33 -3 11 -1 20 3 20 5 0 10 -11 10 -25z m-1781 -128 c15 -26 25 -50 22 -53
-2 -3 -39 -4 -81 -2 l-76 3 41 68 c46 77 39 78 94 -16z m1602 61 c-3 -8 -6 -5
-6 6 -1 11 2 17 5 13 3 -3 4 -12 1 -19z m-445 -65 c-6 -66 -8 -69 -13 -15 -2
32 0 52 6 52 7 0 9 -16 7 -37z m57 -15 c-1 -41 -3 -47 -9 -28 l-7 25 -11 -25
c-10 -22 -11 -19 -11 28 -1 46 1 52 19 52 18 0 20 -6 19 -52z m50 0 c-1 -42
-3 -48 -9 -28 -8 24 -8 24 -9 3 -2 -46 -21 -21 -21 27 0 43 3 50 20 50 18 0
20 -6 19 -52z m44 45 c-7 -2 -13 -11 -13 -19 0 -8 6 -14 13 -15 10 0 10 -2 0
-6 -7 -2 -13 -13 -13 -23 0 -10 6 -21 13 -23 7 -3 5 -6 -5 -6 -15 -1 -18 8
-18 49 0 41 3 50 18 49 10 0 12 -3 5 -6z m317 0 c0 -5 -5 -15 -10 -23 -7 -12
-9 -10 -7 8 1 19 17 33 17 15z m70 -15 c0 -19 -2 -20 -10 -8 -6 10 -10 11 -10
3 0 -7 -7 -13 -16 -13 -10 0 -14 6 -11 14 3 8 1 17 -6 20 -7 2 3 5 21 5 27 1
32 -3 32 -21z m81 15 c6 -33 5 -53 -2 -53 -5 0 -8 10 -6 22 1 17 -4 24 -22 26
-18 3 -22 0 -18 -12 4 -9 2 -16 -3 -16 -6 0 -10 9 -10 20 0 16 7 20 30 20 17
0 31 -3 31 -7z m-5 -63 c17 -15 18 -30 3 -30 -5 0 -8 4 -4 9 3 5 1 12 -5 16
-5 3 -10 -1 -10 -9 0 -11 -9 -16 -30 -16 -21 0 -30 5 -30 16 0 8 -5 12 -10 9
-6 -4 -8 -10 -6 -14 3 -4 -4 -8 -15 -8 -14 -1 -19 5 -19 23 0 15 4 23 11 19 6
-4 8 -14 4 -22 -4 -13 -3 -14 10 -3 8 7 13 16 10 20 -3 5 3 7 12 5 10 -2 23
-4 28 -4 6 -1 4 -5 -3 -10 -11 -7 -11 -9 2 -14 9 -4 17 -2 17 3 1 6 3 15 4 20
1 6 4 18 5 28 2 13 4 12 7 -5 2 -12 11 -27 19 -33z m-146 -1 c0 -11 -4 -18
-10 -14 -5 3 -7 12 -3 20 7 21 13 19 13 -6z m-459 -54 c5 13 8 1 7 -35 0 -54
0 -55 -13 -25 l-13 30 -5 -30 c-2 -18 -4 -8 -5 25 -1 45 1 52 10 35 11 -19 11
-19 19 0z m91 -35 c-5 -61 -20 -66 -24 -7 -4 55 -23 49 -22 -7 1 -33 -3 -43
-13 -39 -13 5 -19 84 -6 96 3 4 20 7 37 7 31 0 31 0 28 -50z m325 28 c-3 -8
-6 -5 -6 6 -1 11 2 17 5 13 3 -3 4 -12 1 -19z m33 -3 c0 -14 -4 -25 -10 -25
-5 0 -10 11 -10 25 0 14 5 25 10 25 6 0 10 -11 10 -25z m77 10 c-1 -5 -10 -17
-19 -26 -11 -10 -14 -20 -7 -30 6 -10 9 -10 9 -1 0 6 11 12 25 12 18 0 25 -5
25 -20 0 -17 -7 -20 -41 -20 -24 0 -38 4 -34 10 3 5 1 19 -5 30 -6 11 -7 19
-3 18 4 -2 9 2 10 7 0 6 -2 9 -6 8 -4 -1 -8 4 -8 10 0 7 12 13 28 12 15 0 27
-4 26 -10z m83 5 c-8 -5 -9 -10 -2 -14 12 -7 4 -46 -9 -46 -5 0 -9 -7 -9 -16
0 -8 -4 -12 -10 -9 -15 9 -12 35 4 35 18 0 27 25 14 38 -12 12 -41 4 -33 -8 3
-5 1 -11 -5 -15 -6 -3 -10 4 -10 17 0 20 5 23 36 24 20 1 31 -2 24 -6z m-159
-65 c7 19 8 18 8 -2 1 -17 -5 -23 -19 -23 -14 0 -20 7 -20 23 1 21 1 21 12 2
11 -19 11 -19 19 0z m169 -15 c0 -5 -5 -10 -11 -10 -5 0 -7 5 -4 10 3 6 8 10
11 10 2 0 4 -4 4 -10z m-1880 -265 c0 -10 -9 -14 -25 -13 -14 1 -25 7 -25 13
0 6 11 12 25 13 16 1 25 -3 25 -13z m140 -12 c-1 -26 -1 -26 -12 -8 -11 19
-11 19 -18 0 -6 -17 -8 -16 -12 8 -4 23 -2 27 18 27 20 0 24 -5 24 -27z m-178
-131 c2 -34 0 -62 -4 -62 -5 0 -7 42 -6 93 1 94 5 82 10 -31z m1316 88 c5 -13
3 -13 -11 -1 -15 12 -17 9 -17 -29 0 -34 3 -41 16 -36 10 4 14 1 12 -6 -3 -7
-12 -14 -21 -16 -14 -3 -17 6 -17 53 0 47 3 56 17 53 9 -2 19 -10 21 -18z m32
-70 c5 0 11 21 13 48 4 44 4 43 3 -8 -1 -44 -5 -55 -18 -58 -16 -3 -18 4 -16
55 2 57 2 57 5 11 2 -27 8 -48 13 -48z m90 73 c0 -15 -2 -16 -10 -3 -11 17
-11 18 -16 -33 -2 -31 0 -38 12 -33 8 3 14 -1 14 -10 0 -9 -7 -14 -17 -12 -14
2 -19 15 -21 56 -3 47 -1 52 17 52 13 0 21 -6 21 -17z m49 -40 c-1 -32 -4 -48
-6 -35 -2 12 -8 22 -13 22 -5 0 -11 -10 -13 -22 -2 -13 -5 3 -6 35 -1 51 1 57
19 57 18 0 20 -6 19 -57z m51 23 c0 -21 -6 -36 -15 -40 -8 -3 -12 -12 -9 -21
3 -8 1 -15 -5 -15 -7 0 -11 21 -11 55 0 48 2 55 20 55 16 0 20 -7 20 -34z
m230 17 c0 -15 -2 -16 -10 -3 -5 8 -12 11 -16 7 -4 -3 -2 -13 4 -20 9 -10 8
-14 -3 -14 -8 0 -13 2 -10 5 2 3 0 13 -6 23 -8 16 -6 19 16 19 17 0 25 -5 25
-17z m28 -8 c-3 -33 -16 -33 -14 0 0 14 4 25 8 25 4 0 7 -11 6 -25z m62 15 c0
-13 -11 -13 -30 0 -12 8 -11 10 8 10 12 0 22 -4 22 -10z m40 -12 c0 -10 -4
-18 -9 -18 -5 0 -11 8 -13 18 -3 11 0 19 8 19 8 0 14 -9 14 -19z m-40 -18 c0
-5 -4 -10 -10 -10 -5 0 -10 5 -10 10 0 6 5 10 10 10 6 0 10 -4 10 -10z m-1683
-32 c-3 -7 -5 -2 -5 12 0 14 2 19 5 13 2 -7 2 -19 0 -25z m1651 1 c-6 -4 -8
-14 -5 -23 4 -9 2 -16 -3 -16 -11 0 -13 30 -4 55 5 13 9 14 15 4 4 -8 3 -16
-3 -20z m52 -9 c0 -23 -5 -30 -19 -30 -15 0 -17 5 -13 28 l6 27 7 -25 7 -25 1
28 c1 37 11 35 11 -3z m-153 -12 c-3 -7 -5 -2 -5 12 0 14 2 19 5 13 2 -7 2
-19 0 -25z m73 13 c0 -11 -4 -23 -10 -26 -6 -4 -7 1 -3 10 3 10 0 21 -8 26
-11 7 -11 9 4 9 10 0 17 -8 17 -19z m-1639 -41 c5 0 10 8 10 18 1 9 5 -1 8
-23 3 -22 2 -43 -3 -46 -4 -4 -2 -9 5 -11 8 -3 -11 -5 -41 -5 -44 -1 -49 1
-24 6 41 10 54 19 54 38 0 9 -6 13 -15 9 -11 -4 -15 2 -14 22 1 17 3 20 6 10
2 -10 9 -18 14 -18z m-151 -70 c0 -5 -4 -10 -10 -10 -5 0 -10 5 -10 10 0 6 5
10 10 10 6 0 10 -4 10 -10z m1400 -256 c0 -22 4 -24 53 -24 60 0 92 -14 55
-23 -12 -4 -50 -7 -84 -7 l-60 0 -1 37 c-1 21 1 41 3 45 10 15 34 -5 34 -28z
m420 0 c0 -22 4 -24 53 -24 62 0 99 -9 91 -21 -3 -5 -48 -9 -100 -9 -58 0 -93
4 -89 10 3 5 13 6 23 3 16 -6 16 -6 0 11 -18 17 -24 47 -12 59 12 12 34 -6 34
-29z m-1722 -36 c-6 -16 -60 -22 -107 -12 -34 7 -35 7 -11 14 43 14 122 12
118 -2z m422 -3 c0 -17 -43 -20 -101 -8 -33 7 -33 7 -9 14 48 14 110 10 110
-6z m40 -39 c0 -8 -4 -17 -9 -20 -10 -7 -23 19 -14 28 11 11 23 6 23 -8z m835
3 c10 -14 1 -21 -19 -13 -9 3 -13 10 -10 15 7 12 21 11 29 -2z m419 2 c3 -5 0
-14 -8 -20 -10 -9 -15 -8 -19 3 -9 22 15 37 27 17z m-1669 -11 c-3 -5 -10 -10
-16 -10 -5 0 -9 5 -9 10 0 6 7 10 16 10 8 0 12 -4 9 -10z m543 -467 c-10 -2
-26 -2 -35 0 -10 3 -2 5 17 5 19 0 27 -2 18 -5z m370 0 c-53 -2 -143 -2 -200
0 -57 1 -13 3 97 3 110 0 156 -2 103 -3z"/>
<path d="M2382 2400 c0 -14 2 -19 5 -12 2 6 2 18 0 25 -3 6 -5 1 -5 -13z"/>
<path d="M2550 2395 c0 -8 5 -15 10 -15 6 0 10 7 10 15 0 8 -4 15 -10 15 -5 0
-10 -7 -10 -15z"/>
<path d="M2910 2350 c0 -5 5 -10 11 -10 5 0 7 5 4 10 -3 6 -8 10 -11 10 -2 0
-4 -4 -4 -10z"/>
<path d="M1066 2261 c-6 -10 37 -31 64 -31 11 0 20 4 20 10 0 22 -72 41 -84
21z"/>
<path d="M2350 2280 c0 -11 5 -20 10 -20 6 0 10 9 10 20 0 11 -4 20 -10 20 -5
0 -10 -9 -10 -20z"/>
<path d="M2412 2280 c0 -14 2 -19 5 -12 2 6 2 18 0 25 -3 6 -5 1 -5 -13z"/>
<path d="M2856 2118 c3 -5 10 -6 15 -3 13 9 11 12 -6 12 -8 0 -12 -4 -9 -9z"/>
<path d="M2490 1780 c0 -11 5 -20 10 -20 6 0 10 9 10 20 0 11 -4 20 -10 20 -5
0 -10 -9 -10 -20z"/>
<path d="M2552 1780 c0 -14 2 -19 5 -12 2 6 2 18 0 25 -3 6 -5 1 -5 -13z"/>
</g>
</svg>
